:FULLY-SPECIFIED
:DEGREES
51
root -2.81986 16.4248 -36.1743 3.59029 0.209959 -2.62967
lfemur -22.5778 6.03673 -8.86982
ltibia 46.3752
lfoot -22.5879 0.757798
ltoes -9.20669
rfemur -22.8677 -6.40555 14.0654
rtibia 48.6008
rfoot -26.3901 1.88079
rtoes -7.45554
lowerback 7.49727 1.98455 -1.7833
upperback -3.78294 2.56152 1.21923
thorax -8.34483 1.38808 1.91428
lowerneck -2.94683 -3.82191 -6.5467
upperneck 6.17494 -5.15943 6.01081
head 2.90154 -2.5468 2.96369
lclavicle 3.11867e-14 1.07344e-14
lhumerus -26.8819 -1.69484 88.4535
lradius 24.1162
lwrist -31.6236
lhand -28.3766 30.4034
lfingers 7.12502
lthumb -1.7496 60.376
rclavicle 3.11867e-14 1.07344e-14
rhumerus -32.637 2.00252 -79.806
rradius 30.2901
rwrist 3.20452
rhand -20.1629 -26.7659
rfingers 7.12502
rthumb 6.18251 -56.6557
52
root -2.82095 16.4225 -36.1729 3.60555 0.239345 -2.59712
lfemur -22.6167 6.04951 -8.90271
ltibia 46.4043
lfoot -22.6101 0.734088
ltoes -9.25758
rfemur -22.8907 -6.43123 14.0352
rtibia 48.6445
rfoot -26.4133 1.81374
rtoes -7.64605
lowerback 7.47608 1.97824 -1.81632
upperback -3.768 2.5495 1.21761
thorax -8.3172 1.38367 1.93381
lowerneck -3.04383 -3.82364 -6.54666
upperneck 6.20958 -5.15628 5.99291
head 2.93065 -2.54429 2.95652
lclavicle 8.87698e-15 -3.77691e-15
lhumerus -26.8346 -1.59813 88.4434
lradius 24.0704
lwrist -31.721
lhand -28.3796 30.3261
lfingers 7.12502
lthumb -1.75257 60.2987
rclavicle 8.87698e-15 -3.77691e-15
rhumerus -32.576 1.95206 -79.7508
rradius 30.2001
rwrist 3.23489
rhand -20.1851 -26.6221
rfingers 7.12502
rthumb 6.16108 -56.5125
53
root -2.82241 16.4205 -36.1724 3.61684 0.263921 -2.60565
lfemur -22.6578 6.08512 -8.88552
ltibia 46.4404
lfoot -22.6327 0.663883
ltoes -9.11762
rfemur -22.9132 -6.44627 14.0523
rtibia 48.6792
rfoot -26.4363 1.80475
rtoes -7.59031
lowerback 7.49104 1.98601 -1.8034
upperback -3.79592 2.56071 1.20963
thorax -8.3557 1.38871 1.91552
lowerneck -3.01287 -3.83547 -6.56194
upperneck 6.2704 -5.17698 6.01593
head 2.94862 -2.55484 2.96709
lclavicle 1.75645e-15 3.77691e-15
lhumerus -26.8649 -1.5663 88.425
lradius 24.0479
lwrist -31.7471
lhand -28.3573 30.1557
lfingers 7.12502
lthumb -1.73099 60.1284
rclavicle 1.75645e-15 3.77691e-15
rhumerus -32.6156 1.86263 -79.7076
rradius 30.1559
rwrist 3.2675
rhand -20.2469 -26.6695
rfingers 7.12502
rthumb 6.10144 -56.5617
54
root -2.82329 16.4192 -36.1703 3.63773 0.285768 -2.60419
lfemur -22.6988 6.11678 -8.88413
ltibia 46.4734
lfoot -22.6573 0.614995
ltoes -9.10316
rfemur -22.9433 -6.44421 14.0546
rtibia 48.7168
rfoot -26.4461 1.81123
rtoes -7.52884
lowerback 7.44865 1.98524 -1.7967
upperback -3.78203 2.56046 1.2041
thorax -8.31526 1.38768 1.90748
lowerneck -3.10994 -3.84888 -6.54129
upperneck 6.34429 -5.19155 5.9898
head 2.99132 -2.56091 2.95253
lclavicle 8.09271e-15 3.47873e-15
lhumerus -26.8248 -1.54882 88.4226
lradius 24.0338
lwrist -31.7163
lhand -28.3042 30.1419
lfingers 7.12502
lthumb -1.67974 60.115
rclavicle 8.09271e-15 3.47873e-15
rhumerus -32.59 1.77652 -79.6672
rradius 30.1112
rwrist 3.31725
rhand -20.2689 -26.6269
rfingers 7.12502
rthumb 6.08017 -56.5196
55
root -2.82304 16.4184 -36.1677 3.71656 0.363444 -2.60861
lfemur -22.8204 6.09903 -8.8844
ltibia 46.5055
lfoot -22.6567 0.58402
ltoes -9.03714
rfemur -23.0307 -6.54885 14.0695
rtibia 48.7482
rfoot -26.4572 1.8107
rtoes -7.59818
lowerback 7.3287 2.00306 -1.70851
upperback -3.76946 2.59074 1.14376
thorax -8.2256 1.39512 1.79368
lowerneck -3.21872 -3.86108 -6.45652
upperneck 6.41439 -5.20724 5.96141
head 3.03239 -2.56578 2.92488
lclavicle -2.75806e-14 -9.14409e-15
lhumerus -26.7528 -1.68835 88.4262
lradius 24.0363
lwrist -31.7546
lhand -28.2089 29.8556
lfingers 7.12502
lthumb -1.58764 59.8295
rclavicle -2.75806e-14 -9.14409e-15
rhumerus -32.6033 1.58406 -79.6641
rradius 30.1342
rwrist 3.39441
rhand -20.2422 -26.6085
rfingers 7.12502
rthumb 6.10602 -56.5005
56
root -2.82594 16.4163 -36.1674 3.65984 0.329073 -2.60933
lfemur -22.7632 6.1572 -8.86705
ltibia 46.5349
lfoot -22.694 0.561588
ltoes -9.09543
rfemur -22.9946 -6.51185 14.0739
rtibia 48.7829
rfoot -26.4694 1.77625
rtoes -7.72439
lowerback 7.40431 1.97895 -1.78854
upperback -3.78512 2.55428 1.21379
thorax -8.29247 1.38448 1.91539
lowerneck -3.10881 -3.84858 -6.55243
upperneck 6.37793 -5.18863 5.94557
head 3.00098 -2.56109 2.93955
lclavicle 2.17032e-15 -9.14409e-15
lhumerus -26.8575 -1.49358 88.447
lradius 23.9802
lwrist -32.0752
lhand -28.5915 30.2069
lfingers 7.12502
lthumb -1.95714 60.1776
rclavicle 2.17032e-15 -9.14409e-15
rhumerus -32.6142 1.73998 -79.5957
rradius 30.0673
rwrist 3.31853
rhand -20.1913 -26.5758
rfingers 7.12502
rthumb 6.15512 -56.4664
